<?xml version="1.0" encoding="UTF-8"?>
<svg xmlns="http://www.w3.org/2000/svg" xmlns:xlink="http://www.w3.org/1999/xlink" width="768px" height="768px" viewBox="0 0 768 768" version="1.1">
<g id="surface1">
<path style=" stroke:none;fill-rule:nonzero;fill:rgb(94.901961%,94.901961%,94.901961%);fill-opacity:1;" d="M 659.132812 472.921875 L 643.664062 463.347656 C 643.535156 461.839844 643.386719 460.335938 643.226562 458.839844 L 656.515625 446.441406 C 657.867188 445.183594 658.472656 443.316406 658.109375 441.511719 C 657.753906 439.699219 656.480469 438.207031 654.753906 437.5625 L 637.761719 431.207031 C 637.335938 429.738281 636.890625 428.277344 636.429688 426.824219 L 647.03125 412.101562 C 648.109375 410.605469 648.332031 408.660156 647.628906 406.953125 C 646.925781 405.25 645.386719 404.035156 643.566406 403.734375 L 625.648438 400.820312 C 624.953125 399.460938 624.226562 398.125 623.496094 396.796875 L 631.023438 380.269531 C 631.796875 378.585938 631.636719 376.628906 630.609375 375.101562 C 629.585938 373.566406 627.847656 372.671875 626 372.742188 L 607.8125 373.375 C 606.875 372.199219 605.917969 371.035156 604.941406 369.890625 L 609.121094 352.175781 C 609.542969 350.378906 609.011719 348.496094 607.699219 347.1875 C 606.402344 345.886719 604.515625 345.347656 602.71875 345.769531 L 585.007812 349.945312 C 583.859375 348.972656 582.695312 348.011719 581.515625 347.074219 L 582.152344 328.890625 C 582.222656 327.046875 581.324219 325.296875 579.792969 324.277344 C 578.253906 323.25 576.304688 323.09375 574.628906 323.859375 L 558.105469 331.390625 C 556.769531 330.660156 555.433594 329.933594 554.082031 329.234375 L 551.160156 311.3125 C 550.863281 309.496094 549.644531 307.957031 547.941406 307.25 C 546.242188 306.542969 544.292969 306.773438 542.796875 307.851562 L 528.066406 318.449219 C 526.613281 317.988281 525.15625 317.542969 523.6875 317.121094 L 517.332031 300.128906 C 516.6875 298.394531 515.195312 297.125 513.382812 296.765625 C 511.574219 296.410156 509.710938 297.011719 508.453125 298.355469 L 496.058594 311.660156 C 494.5625 311.492188 493.054688 311.339844 491.550781 311.21875 L 481.976562 295.75 C 481.007812 294.183594 479.296875 293.226562 477.449219 293.226562 C 475.605469 293.226562 473.890625 294.183594 472.925781 295.75 L 463.351562 311.21875 C 461.847656 311.339844 460.339844 311.492188 458.84375 311.660156 L 446.441406 298.355469 C 445.1875 297.011719 443.320312 296.410156 441.515625 296.765625 C 439.703125 297.128906 438.210938 298.394531 437.566406 300.128906 L 431.210938 317.121094 C 429.742188 317.542969 428.28125 317.992188 426.828125 318.449219 L 412.101562 307.851562 C 410.605469 306.769531 408.65625 306.539062 406.953125 307.25 C 405.25 307.957031 404.03125 309.496094 403.734375 311.3125 L 400.8125 329.234375 C 399.460938 329.933594 398.125 330.65625 396.789062 331.390625 L 380.265625 323.859375 C 378.585938 323.089844 376.628906 323.25 375.101562 324.277344 C 373.566406 325.296875 372.671875 327.046875 372.742188 328.890625 L 373.375 347.074219 C 372.199219 348.011719 371.035156 348.972656 369.882812 349.945312 L 352.171875 345.769531 C 350.375 345.351562 348.488281 345.886719 347.1875 347.1875 C 345.875 348.496094 345.34375 350.378906 345.765625 352.175781 L 349.9375 369.890625 C 348.96875 371.039062 348.011719 372.199219 347.074219 373.375 L 328.890625 372.742188 C 327.054688 372.6875 325.300781 373.566406 324.277344 375.101562 C 323.25 376.628906 323.09375 378.585938 323.859375 380.269531 L 331.390625 396.796875 C 330.660156 398.125 329.933594 399.460938 329.234375 400.820312 L 311.316406 403.734375 C 309.496094 404.03125 307.960938 405.25 307.253906 406.953125 C 306.550781 408.660156 306.78125 410.605469 307.851562 412.101562 L 318.453125 426.824219 C 317.992188 428.277344 317.542969 429.738281 317.121094 431.207031 L 300.128906 437.5625 C 298.402344 438.207031 297.132812 439.699219 296.773438 441.511719 C 296.414062 443.320312 297.015625 445.183594 298.363281 446.441406 L 311.660156 458.839844 C 311.492188 460.335938 311.34375 461.84375 311.21875 463.347656 L 295.75 472.921875 C 294.183594 473.886719 293.230469 475.597656 293.230469 477.445312 C 293.230469 479.296875 294.183594 481.003906 295.75 481.96875 L 311.21875 491.542969 C 311.34375 493.050781 311.492188 494.554688 311.660156 496.050781 L 298.363281 508.453125 C 297.015625 509.707031 296.414062 511.574219 296.773438 513.378906 C 297.132812 515.191406 298.402344 516.679688 300.128906 517.328125 L 317.121094 523.683594 C 317.542969 525.152344 317.992188 526.613281 318.453125 528.066406 L 307.851562 542.792969 C 306.777344 544.292969 306.546875 546.238281 307.253906 547.9375 C 307.960938 549.644531 309.5 550.863281 311.320312 551.15625 L 329.234375 554.070312 C 329.933594 555.429688 330.652344 556.765625 331.390625 558.101562 L 323.859375 574.621094 C 323.089844 576.300781 323.25 578.253906 324.277344 579.789062 C 325.304688 581.324219 327.054688 582.222656 328.890625 582.148438 L 347.066406 581.511719 C 348.011719 582.695312 348.96875 583.851562 349.9375 585.003906 L 345.765625 602.71875 C 345.34375 604.515625 345.875 606.390625 347.1875 607.699219 C 348.484375 609.011719 350.375 609.535156 352.171875 609.113281 L 369.882812 604.941406 C 371.035156 605.921875 372.199219 606.871094 373.375 607.808594 L 372.742188 625.996094 C 372.671875 627.835938 373.566406 629.582031 375.101562 630.609375 C 376.628906 631.632812 378.585938 631.789062 380.265625 631.019531 L 396.789062 623.492188 C 398.121094 624.230469 399.457031 624.949219 400.8125 625.648438 L 403.734375 643.558594 C 404.03125 645.382812 405.25 646.925781 406.953125 647.625 C 408.652344 648.332031 410.605469 648.105469 412.101562 647.03125 L 426.824219 636.425781 C 428.277344 636.886719 429.738281 637.335938 431.207031 637.757812 L 437.5625 654.746094 C 438.207031 656.472656 439.699219 657.75 441.511719 658.101562 C 443.320312 658.464844 445.183594 657.859375 446.4375 656.507812 L 458.839844 643.214844 C 460.335938 643.386719 461.84375 643.53125 463.347656 643.664062 L 472.925781 659.132812 C 473.886719 660.691406 475.601562 661.652344 477.445312 661.652344 C 479.292969 661.652344 481.003906 660.695312 481.972656 659.132812 L 491.546875 643.664062 C 493.054688 643.53125 494.558594 643.386719 496.054688 643.214844 L 508.453125 656.507812 C 509.707031 657.859375 511.574219 658.464844 513.378906 658.101562 C 515.191406 657.746094 516.683594 656.472656 517.328125 654.746094 L 523.683594 637.757812 C 525.152344 637.335938 526.613281 636.886719 528.066406 636.425781 L 542.792969 647.03125 C 544.289062 648.105469 546.238281 648.332031 547.9375 647.625 C 549.640625 646.925781 550.859375 645.378906 551.15625 643.558594 L 554.078125 625.648438 C 555.429688 624.949219 556.765625 624.21875 558.101562 623.492188 L 574.625 631.019531 C 576.300781 631.789062 578.257812 631.632812 579.789062 630.609375 C 581.320312 629.582031 582.214844 627.839844 582.148438 625.996094 L 581.515625 607.808594 C 582.691406 606.867188 583.855469 605.921875 585.003906 604.941406 L 602.714844 609.113281 C 604.511719 609.535156 606.398438 609.011719 607.699219 607.699219 C 609.007812 606.390625 609.539062 604.515625 609.117188 602.71875 L 604.945312 585.003906 C 605.917969 583.851562 606.875 582.695312 607.808594 581.511719 L 625.996094 582.148438 C 627.828125 582.222656 629.582031 581.324219 630.605469 579.789062 C 631.632812 578.253906 631.792969 576.300781 631.019531 574.621094 L 623.492188 558.101562 C 624.226562 556.765625 624.949219 555.429688 625.644531 554.070312 L 643.5625 551.15625 C 645.386719 550.863281 646.921875 549.644531 647.625 547.9375 C 648.328125 546.238281 648.105469 544.292969 647.027344 542.792969 L 636.429688 528.066406 C 636.886719 526.613281 637.332031 525.152344 637.757812 523.683594 L 654.75 517.328125 C 656.476562 516.679688 657.753906 515.191406 658.105469 513.378906 C 658.46875 511.570312 657.863281 509.707031 656.511719 508.453125 L 643.222656 496.050781 C 643.382812 494.554688 643.53125 493.046875 643.660156 491.542969 L 659.128906 481.96875 C 660.695312 481.003906 661.648438 479.292969 661.648438 477.445312 C 661.648438 475.601562 660.699219 473.886719 659.132812 472.921875 Z M 555.613281 601.226562 C 549.707031 599.953125 545.949219 594.132812 547.21875 588.207031 C 548.480469 582.289062 554.300781 578.523438 560.203125 579.796875 C 566.109375 581.0625 569.871094 586.894531 568.605469 592.808594 C 567.335938 598.722656 561.515625 602.492188 555.613281 601.226562 Z M 550.355469 565.683594 C 544.96875 564.527344 539.667969 567.957031 538.511719 573.355469 L 533.019531 598.980469 C 516.074219 606.671875 497.257812 610.945312 477.441406 610.945312 C 457.167969 610.945312 437.941406 606.460938 420.695312 598.445312 L 415.207031 572.816406 C 414.050781 567.425781 408.75 563.988281 403.363281 565.148438 L 380.742188 570.003906 C 376.542969 565.683594 372.636719 561.078125 369.046875 556.21875 L 479.121094 556.21875 C 480.367188 556.21875 481.199219 555.992188 481.199219 554.859375 L 481.199219 515.921875 C 481.199219 514.789062 480.367188 514.5625 479.121094 514.5625 L 446.929688 514.5625 L 446.929688 489.878906 L 481.75 489.878906 C 484.925781 489.878906 498.742188 490.789062 503.160156 508.449219 C 504.542969 513.878906 507.582031 531.546875 509.660156 537.203125 C 511.726562 543.546875 520.15625 556.21875 529.132812 556.21875 L 583.988281 556.21875 C 584.609375 556.21875 585.273438 556.148438 585.976562 556.019531 C 582.171875 561.191406 577.996094 566.085938 573.5 570.65625 Z M 398.109375 600.691406 C 392.203125 601.96875 386.386719 598.199219 385.117188 592.285156 C 383.855469 586.355469 387.609375 580.539062 393.515625 579.261719 C 399.421875 578 405.242188 581.765625 406.507812 587.683594 C 407.773438 593.597656 404.011719 599.425781 398.109375 600.691406 Z M 356.351562 431.363281 C 358.800781 436.894531 356.308594 443.375 350.785156 445.820312 C 345.265625 448.273438 338.800781 445.777344 336.351562 440.246094 C 333.902344 434.710938 336.394531 428.242188 341.917969 425.789062 C 347.441406 423.335938 353.902344 425.828125 356.351562 431.363281 Z M 343.519531 461.785156 L 367.085938 451.316406 C 372.117188 449.078125 374.390625 443.179688 372.15625 438.136719 L 367.300781 427.160156 L 386.390625 427.160156 L 386.390625 513.203125 L 347.878906 513.203125 C 344.539062 501.460938 342.746094 489.066406 342.746094 476.257812 C 342.746094 471.367188 343.011719 466.535156 343.519531 461.785156 Z M 446.9375 453.429688 L 446.9375 428.070312 L 492.394531 428.070312 C 494.742188 428.070312 508.972656 430.78125 508.972656 441.421875 C 508.972656 450.257812 498.054688 453.425781 489.082031 453.425781 L 446.9375 453.425781 Z M 612.136719 476.257812 C 612.136719 479.621094 612.011719 482.953125 611.765625 486.257812 L 597.945312 486.257812 C 596.5625 486.257812 596.007812 487.164062 596.007812 488.519531 L 596.007812 494.867188 C 596.007812 509.804688 587.585938 513.054688 580.203125 513.882812 C 573.171875 514.675781 565.378906 510.941406 564.417969 506.636719 C 560.273438 483.316406 553.363281 478.335938 542.449219 469.726562 C 555.992188 461.128906 570.082031 448.441406 570.082031 431.460938 C 570.082031 413.125 557.511719 401.578125 548.945312 395.914062 C 536.925781 387.988281 523.617188 386.402344 520.023438 386.402344 L 377.101562 386.402344 C 396.484375 364.773438 422.75 349.449219 452.457031 343.875 L 469.304688 361.546875 C 473.113281 365.535156 479.421875 365.683594 483.40625 361.871094 L 502.257812 343.84375 C 541.753906 351.195312 575.195312 375.78125 594.464844 409.515625 L 581.5625 438.660156 C 579.332031 443.703125 581.605469 449.605469 586.636719 451.839844 L 611.480469 462.875 C 611.910156 467.285156 612.136719 471.742188 612.136719 476.257812 Z M 469.3125 328.839844 C 473.675781 324.65625 480.601562 324.824219 484.777344 329.195312 C 488.949219 333.578125 488.792969 340.507812 484.417969 344.6875 C 480.050781 348.867188 473.128906 348.707031 468.949219 344.328125 C 464.78125 339.953125 464.941406 333.019531 469.3125 328.839844 Z M 597.371094 431.894531 C 599.816406 426.363281 606.277344 423.867188 611.800781 426.324219 C 617.324219 428.773438 619.816406 435.25 617.367188 440.777344 C 614.921875 446.3125 608.457031 448.808594 602.929688 446.355469 C 597.414062 443.90625 594.921875 437.433594 597.371094 431.894531 Z M 597.371094 431.894531 "/>
<path style=" stroke:none;fill-rule:nonzero;fill:rgb(40.784314%,67.058825%,87.450981%);fill-opacity:1;" d="M 361.332031 202.945312 C 373.832031 190.449219 394.09375 190.449219 406.589844 202.945312 L 474.472656 270.828125 C 486.96875 283.324219 486.96875 303.585938 474.472656 316.082031 C 461.972656 328.578125 441.714844 328.578125 429.214844 316.082031 L 361.332031 248.199219 C 348.835938 235.703125 348.835938 215.441406 361.332031 202.945312 Z M 361.332031 202.945312 "/>
<path style=" stroke:none;fill-rule:nonzero;fill:rgb(60.000002%,76.862746%,47.843137%);fill-opacity:1;" d="M 327.433594 123.765625 C 314.9375 111.269531 294.675781 111.269531 282.179688 123.765625 C 269.683594 136.261719 269.683594 156.523438 282.179688 169.023438 C 294.675781 181.519531 314.9375 181.519531 327.433594 169.023438 C 339.929688 156.523438 339.929688 136.261719 327.433594 123.765625 Z M 327.433594 123.765625 "/>
<path style=" stroke:none;fill-rule:nonzero;fill:rgb(100%,77.64706%,42.745098%);fill-opacity:1;" d="M 157.585938 157.660156 C 170.082031 145.164062 190.34375 145.164062 202.84375 157.660156 L 304.664062 259.484375 C 317.160156 271.980469 317.160156 292.242188 304.664062 304.738281 C 292.167969 317.234375 271.90625 317.234375 259.410156 304.738281 L 157.585938 202.914062 C 145.089844 190.417969 145.089844 170.15625 157.585938 157.660156 Z M 157.585938 157.660156 "/>
<path style=" stroke:none;fill-rule:nonzero;fill:rgb(100%,39.215687%,43.921569%);fill-opacity:1;" d="M 135.101562 293.496094 C 147.597656 281 167.859375 281 180.359375 293.496094 L 316.121094 429.261719 C 328.617188 441.757812 328.617188 462.019531 316.121094 474.515625 C 303.625 487.011719 283.363281 487.011719 270.867188 474.515625 L 135.101562 338.75 C 122.605469 326.253906 122.605469 305.992188 135.101562 293.496094 Z M 135.101562 293.496094 "/>
</g>
</svg>
